<svg width="44" height="47" viewBox="0 0 44 47" fill="none" xmlns="http://www.w3.org/2000/svg">
<g clip-path="url(#clip0_15_3755)">
<path fill-rule="evenodd" clip-rule="evenodd" d="M38.6535 32.128C43.4663 29.3641 45.1088 23.2308 42.3585 18.4982C39.57 13.7277 33.3822 12.0997 28.6075 14.8258L5.04011 28.3042C0.227263 31.0681 -1.41525 37.2014 1.33509 41.9341C4.12356 46.7045 10.3114 48.3326 15.0861 45.6064L38.6538 32.128H38.6535Z" fill="white"/>
<path d="M2.19629 5.47437C4.66909 1.22017 10.2832 -0.284597 14.5811 2.20288L14.5859 2.20581L38.1533 15.6843L38.1562 15.6863H38.1572C42.3492 18.0607 43.8668 23.3465 41.7109 27.5408L41.4912 27.9431C40.7744 29.1595 39.8197 30.1426 38.7246 30.8943L27.4717 37.363C27.7139 36.6158 27.8476 35.8201 27.8477 34.9958C27.8477 32.0443 26.1873 29.4877 23.751 28.1824L5.53418 17.7351L5.5293 17.7322L5.13281 17.4929C1.11419 14.9348 -0.197586 9.59413 2.19629 5.47437Z" fill="white" stroke="#393197" stroke-width="2"/>
</g>
<defs>
<clipPath id="clip0_15_3755">
<rect width="43.69" height="46.9264" fill="white"/>
</clipPath>
</defs>
</svg>
